<mxfile host="app.diagrams.net" modified="2024-06-03T22:11:36.385Z" agent="Mozilla/5.0 (Macintosh; Intel Mac OS X 10_15_7) AppleWebKit/605.1.15 (KHTML, like Gecko) Version/17.4.1 Safari/605.1.15" version="24.4.13" etag="or-cvFH9GOHFnXwFQ13V" type="github">
  <diagram name="Page-1" id="UGizP94VEIw645HTKt4q">
    <mxGraphModel>
      <root>
        <mxCell id="0" />
        <mxCell id="1" parent="0" />
      </root>
    </mxGraphModel>
  </diagram>
</mxfile>
